<svg xmlns="http://www.w3.org/2000/svg" viewBox="0 0 400 400" fill="none">
  <defs>
    <linearGradient id="sky" x1="0" y1="0" x2="0" y2="400" gradientUnits="userSpaceOnUse">
      <stop offset="0%" stop-color="#e0e7ff"/>
      <stop offset="100%" stop-color="#c7d2fe"/>
    </linearGradient>
    <linearGradient id="ground" x1="0" y1="280" x2="0" y2="400" gradientUnits="userSpaceOnUse">
      <stop offset="0%" stop-color="#e2e8f0"/>
      <stop offset="100%" stop-color="#cbd5e1"/>
    </linearGradient>
  </defs>
  <rect width="400" height="400" fill="url(#sky)"/>
  <circle cx="340" cy="60" r="30" fill="#fbbf24" opacity="0.6"/>
  <path d="M0 300 Q100 260 200 280 Q300 300 400 270 L400 400 L0 400Z" fill="url(#ground)"/>
  <path d="M0 320 Q100 300 200 310 Q300 320 400 305 L400 400 L0 400Z" fill="#b0bec5" opacity="0.4"/>
  <rect x="60" y="310" width="280" height="8" rx="4" fill="#64748b" opacity="0.5"/>
  <line x1="80" y1="314" x2="120" y2="314" stroke="#fbbf24" stroke-width="2" stroke-dasharray="12 8"/>
  <line x1="160" y1="314" x2="200" y2="314" stroke="#fbbf24" stroke-width="2" stroke-dasharray="12 8"/>
  <line x1="240" y1="314" x2="280" y2="314" stroke="#fbbf24" stroke-width="2" stroke-dasharray="12 8"/>
  <g transform="translate(120, 240)">
    <rect x="0" y="10" width="90" height="50" rx="8" fill="#6366f1"/>
    <rect x="0" y="10" width="90" height="50" rx="8" fill="url(#sky)" opacity="0.15"/>
    <rect x="90" y="20" width="45" height="40" rx="5" fill="#818cf8"/>
    <rect x="95" y="25" width="15" height="15" rx="2" fill="#c7d2fe" opacity="0.6"/>
    <rect x="115" y="25" width="15" height="15" rx="2" fill="#c7d2fe" opacity="0.6"/>
    <rect x="95" y="45" width="35" height="10" rx="2" fill="#c7d2fe" opacity="0.4"/>
    <circle cx="20" cy="65" r="12" fill="#334155"/>
    <circle cx="20" cy="65" r="6" fill="#64748b"/>
    <circle cx="115" cy="65" r="12" fill="#334155"/>
    <circle cx="115" cy="65" r="6" fill="#64748b"/>
    <rect x="-5" y="25" width="15" height="20" rx="3" fill="#4f46e5"/>
    <rect x="-3" y="28" width="11" height="8" rx="1" fill="#a5b4fc" opacity="0.5"/>
    <circle cx="125" cy="15" r="4" fill="#22c55e">
      <animate attributeName="opacity" values="1;0.4;1" dur="1.5s" repeatCount="indefinite"/>
    </circle>
  </g>
  <g transform="translate(50, 180)">
    <rect x="0" y="15" width="35" height="25" rx="4" fill="#94a3b8" opacity="0.4"/>
    <rect x="40" y="5" width="25" height="35" rx="3" fill="#94a3b8" opacity="0.3"/>
    <rect x="70" y="20" width="30" height="20" rx="3" fill="#94a3b8" opacity="0.35"/>
  </g>
  <g transform="translate(290, 170)">
    <rect x="0" y="10" width="20" height="30" rx="3" fill="#94a3b8" opacity="0.3"/>
    <rect x="25" y="0" width="30" height="40" rx="4" fill="#94a3b8" opacity="0.25"/>
  </g>
  <circle cx="200" cy="130" r="3" fill="#6366f1" opacity="0.6"/>
  <circle cx="200" cy="130" r="8" fill="#6366f1" opacity="0.15">
    <animate attributeName="r" values="8;14;8" dur="2s" repeatCount="indefinite"/>
    <animate attributeName="opacity" values="0.15;0.05;0.15" dur="2s" repeatCount="indefinite"/>
  </circle>
  <path d="M185 130 L195 120 L200 130 L210 118 L215 130" stroke="#6366f1" stroke-width="1.5" fill="none" opacity="0.5"/>
</svg>
