<svg xmlns="http://www.w3.org/2000/svg" viewBox="0 0 200 200" fill="none">
  <defs>
    <linearGradient id="bg" x1="0" y1="0" x2="200" y2="200" gradientUnits="userSpaceOnUse">
      <stop offset="0%" stop-color="#6366f1"/>
      <stop offset="100%" stop-color="#8b5cf6"/>
    </linearGradient>
    <linearGradient id="road" x1="40" y1="130" x2="160" y2="130" gradientUnits="userSpaceOnUse">
      <stop offset="0%" stop-color="#ffffff" stop-opacity="0"/>
      <stop offset="50%" stop-color="#ffffff" stop-opacity="0.9"/>
      <stop offset="100%" stop-color="#ffffff" stop-opacity="0"/>
    </linearGradient>
  </defs>
  <rect width="200" height="200" rx="40" fill="url(#bg)"/>
  <circle cx="160" cy="40" r="60" fill="#ffffff" opacity="0.08"/>
  <circle cx="30" cy="170" r="50" fill="#ffffff" opacity="0.06"/>
  <path d="M55 115 L145 115" stroke="url(#road)" stroke-width="3" stroke-linecap="round" stroke-dasharray="8 6"/>
  <rect x="60" y="80" width="50" height="30" rx="6" fill="#ffffff" opacity="0.95"/>
  <rect x="55" y="85" width="10" height="20" rx="3" fill="#ffffff" opacity="0.7"/>
  <path d="M110 80 L110 95 L130 95 L135 80 Z" fill="#ffffff" opacity="0.85"/>
  <rect x="110" y="95" width="25" height="15" rx="3" fill="#ffffff" opacity="0.9"/>
  <circle cx="72" cy="115" r="8" fill="#ffffff"/>
  <circle cx="72" cy="115" r="4" fill="#6366f1"/>
  <circle cx="125" cy="115" r="8" fill="#ffffff"/>
  <circle cx="125" cy="115" r="4" fill="#6366f1"/>
  <path d="M45 135 L155 135" stroke="#ffffff" stroke-width="2" opacity="0.4"/>
  <path d="M50 145 L90 145" stroke="#ffffff" stroke-width="1.5" opacity="0.25" stroke-dasharray="6 4"/>
  <path d="M110 145 L150 145" stroke="#ffffff" stroke-width="1.5" opacity="0.25" stroke-dasharray="6 4"/>
  <circle cx="148" cy="68" r="3" fill="#22c55e"/>
  <circle cx="148" cy="68" r="6" fill="#22c55e" opacity="0.3">
    <animate attributeName="r" values="6;10;6" dur="2s" repeatCount="indefinite"/>
    <animate attributeName="opacity" values="0.3;0.1;0.3" dur="2s" repeatCount="indefinite"/>
  </circle>
</svg>
